<svg id="Component_5_1" data-name="Component 5 – 1" xmlns="http://www.w3.org/2000/svg" xmlns:xlink="http://www.w3.org/1999/xlink" width="282.376" height="230.074" viewBox="0 0 282.376 230.074">
  <defs>
    <linearGradient id="linear-gradient" x1="0.548" y1="0.244" x2="0.442" y2="1.028" gradientUnits="objectBoundingBox">
      <stop offset="0" stop-color="#f4bd01"/>
      <stop offset="1" stop-color="#ebaf03"/>
    </linearGradient>
    <linearGradient id="linear-gradient-2" x1="0.54" y1="0.565" x2="0.452" y2="1.352" gradientUnits="objectBoundingBox">
      <stop offset="0" stop-color="#f4bd01"/>
      <stop offset="1" stop-color="#d28907"/>
    </linearGradient>
    <radialGradient id="radial-gradient" cx="0.483" cy="0.5" r="1.063" gradientTransform="matrix(0.526, -0.253, 0.075, 0.526, 0.192, 0.359)" gradientUnits="objectBoundingBox">
      <stop offset="0" stop-color="#ebaf03"/>
      <stop offset="1" stop-color="#f4bd01"/>
    </radialGradient>
    <filter id="Path_124" x="41.616" y="38.681" width="240.76" height="191.044" filterUnits="userSpaceOnUse">
      <feOffset dx="2" dy="3" input="SourceAlpha"/>
      <feGaussianBlur stdDeviation="3" result="blur"/>
      <feFlood flood-opacity="0.141"/>
      <feComposite operator="in" in2="blur"/>
      <feComposite in="SourceGraphic"/>
    </filter>
  </defs>
  <g id="Group_6" data-name="Group 6" transform="translate(0 86.149) rotate(-22)">
    <path id="Path_122" data-name="Path 122" d="M178.878,33.175l-1.367-.945s-6.795,5.391-22.43,6.889-21.481,1.792-40.112-.9-17.951-2.549-34.414-9.86S55.621,15.351,43.96,9.782,31.913,2.788,23.2.965A47.06,47.06,0,0,0,7.074.462a25.877,25.877,0,0,0-5.39,4.985A8.966,8.966,0,0,0,0,10.453L8.829,28.363S90.169,58.319,89.431,58s78.387-4.642,78.387-4.642l12.449-12.977Z" transform="translate(20.907 0)" fill="url(#linear-gradient)"/>
    <path id="Path_121" data-name="Path 121" d="M197.482,25.314,195.4,24.033a44.752,44.752,0,0,1-8.406,10.215,45.644,45.644,0,0,1-11.461,6.768,298.738,298.738,0,0,1-32.487,3.87c-15.261.761-15.1.929-27.521-.777S97.331,40.7,81.67,34.287A193.427,193.427,0,0,1,51.844,18.425S39.44,9.807,28.3,5.2A72.59,72.59,0,0,0,7.3,0,11.055,11.055,0,0,0,2.364,2.273,9.294,9.294,0,0,0,.094,6.889a20.318,20.318,0,0,0,.85,8.048,39.289,39.289,0,0,0,4.6,8.775L30.554,55.228S135.633,75.7,134.366,75.7,198.827,43.2,198.827,43.2Z" transform="translate(3.762 8.999)" fill="url(#linear-gradient-2)"/>
    <g transform="matrix(0.93, 0.37, -0.37, 0.93, 32.27, -79.88)" filter="url(#Path_124)">
      <path id="Path_124-2" data-name="Path 124" d="M16.932,48.522s-5.14-1.108-8.8-.315S3.87,49.319,2.305,51.7a18.071,18.071,0,0,0-2.142,5.99,7.729,7.729,0,0,0,.357,4.4,28.81,28.81,0,0,0,3.246,5.762C13.91,79.855,24.709,94.77,54.487,100.387s53.088,10.753,79.855,1.785,42.445-18.42,53.318-32.38c7.241-9.3,9.386-24.7,9.348-26.115-.1-3.587-.756-7.99-3.195-14.547s-4.96-4.4-6.559-11.682S187.415,0,187.415,0L176.947.73s-4.228,1.754-5.41,2.188,0,5.721,0,5.721.867,5.436-.168,9.253a12.158,12.158,0,0,1-3.971,6.017L65.526,57.685Z" transform="translate(48.62 118.48) rotate(-22)" fill="url(#radial-gradient)"/>
    </g>
    <path id="Path_120" data-name="Path 120" d="M201.418,32.509s2.3,18.345-7.04,30.6-30.326,18.412-30.326,18.412-22.812,6.9-47.926,4.332S63.6,71.229,63.6,71.229,47.554,64.392,34.354,55.254A154.966,154.966,0,0,1,10.8,34.675S4.3,25.469,2.133,17.346s-3.449-11.372,0-15.163,3.7-1.878,13.8,0,9.35.646,22.751,7S66.5,25.4,81.458,31.138c22.068,8.462,34.668,8.411,34.668,8.411s18.826,2.675,36.629-1.522,34.583-15.266,34.583-15.266a43.524,43.524,0,0,0,7.609-8.444,81.659,81.659,0,0,0,6.471-12.135l13.809,8.665a112.638,112.638,0,0,0-9.292,11.914A36.331,36.331,0,0,0,201.418,32.509Z" transform="translate(0 32.014)" fill="#f4bd01"/>
    <path id="Path_126" data-name="Path 126" d="M3.794,1.921,2.863,2.929S-.082,5.652,0,7.155C.173,10.241,0,14.1,0,14.1s1.524-1.847,2.861-1.847S4.6,15.869,4.6,15.869s4.1-1,5.061.813-.469,4.684-.469,4.684a9.19,9.19,0,0,1,4.162.414,5.531,5.531,0,0,1,2.438,2.586s2.038-2.8,4.507-3.177,4.142-.875,6.095-.332l.071.019c1.468.835,1.067-2.407,1.468-3.071.139-.232,2.771,1.22,3.152.725a3.038,3.038,0,0,0,.87-2.161S24.789,13.091,16.667,8.71c-.278-.15-.653-.355-1.023-.562-2.806-1.567-1.124-3.011-4.691-5.467S5.235,0,5.235,0s-.686,1.064-1.2,1.921S3.794,1.921,3.794,1.921Z" transform="translate(192.199 31.187)" fill="#e5c700" stroke="#e7c500" stroke-linecap="round" stroke-linejoin="round" stroke-width="1" opacity="0.8"/>
    <path id="Path_125" data-name="Path 125" d="M0,3.429A18.682,18.682,0,0,1,1.552,9.456a20.216,20.216,0,0,1-.866,6.317s1.524-1.847,2.861-1.847,1.736,3.62,1.736,3.62,4.1-1,5.061.813-.469,4.684-.469,4.684a9.19,9.19,0,0,1,4.163.414,5.532,5.532,0,0,1,2.438,2.586s2.038-2.8,4.507-3.177a21.085,21.085,0,0,1,6.1-.332,7.856,7.856,0,0,1,3.782,1.2,6.135,6.135,0,0,1,.909-3.522,6.407,6.407,0,0,1,3.206-1.827,171.573,171.573,0,0,1-17.623-7.991c-.278-.15-.653-.355-1.023-.562C13.522,8.258,15.2,6.814,11.636,4.358S2.057,0,2.057,0A3.7,3.7,0,0,1,1.81,2.216,3.454,3.454,0,0,1,0,3.429Z" transform="translate(193.399 27.249)" fill="#6f8202" stroke="#6f8202" stroke-linecap="round" stroke-linejoin="round" stroke-width="1"/>
    <path id="Path_128" data-name="Path 128" d="M.9,1.947c-2.426,2.123.91,6.824,0,6.925s3.842,4.954,4.347,4.954S8.788,15.039,9.7,16.454s3.943,5.863,7.077,3.943,8.9.4,9.806,0,5.56-.708,5.56-3.033-7.279-7.885-8.492-7.986-7.784-1.011-9.2-3.74,0-4.549-3.842-5.257S3.329-.176.9,1.947Z" transform="translate(195.102 26.05)" fill="#824a1b" stroke="#824a1b" stroke-width="1"/>
  </g>
</svg>
