<svg id="Component_9_1" data-name="Component 9 – 1" xmlns="http://www.w3.org/2000/svg" xmlns:xlink="http://www.w3.org/1999/xlink" width="184.073" height="192.939" viewBox="0 0 184.073 192.939">
  <defs>
    <linearGradient id="linear-gradient" x1="0.24" y1="-0.017" x2="0.677" y2="1.082" gradientUnits="objectBoundingBox">
      <stop offset="0" stop-color="#918503"/>
      <stop offset="1" stop-color="#262305"/>
    </linearGradient>
    <linearGradient id="linear-gradient-2" x1="0.69" y1="-0.156" x2="0.156" y2="1.338" gradientUnits="objectBoundingBox">
      <stop offset="0" stop-color="#ae0001"/>
      <stop offset="1" stop-color="#85333a"/>
    </linearGradient>
    <linearGradient id="linear-gradient-3" x1="0.31" y1="-0.156" x2="0.844" y2="1.338" xlink:href="#linear-gradient-2"/>
  </defs>
  <g id="Group_16" data-name="Group 16" transform="translate(-876.173 209.367) rotate(-30)">
    <path id="Path_296" data-name="Path 296" d="M35.673,96.758c9.939,0,11.881,8.409,18.048,5.332C58.9,99.505,68.4,88.121,68.4,79.621c0-13.295-8.408-23.6-19.687-28.988-4.321-2.063-8.068,1.34-13.213,1.34-1.272,0-4.691-2.489-8.521-2.633C10.388,51.2,2.158,62.49,2.158,79.657c0,9.681,9.6,21.718,16.243,24.084C24.3,105.841,26.914,96.758,35.673,96.758Z" transform="translate(830.375 351.537)" fill="#8d0606"/>
    <path id="Path_297" data-name="Path 297" d="M34.886,96.758c-9.939,0-11.881,8.409-18.048,5.332C11.657,99.505,2.158,88.121,2.158,79.621c0-13.295,8.408-23.6,19.687-28.988,4.321-2.063,8.068,1.34,13.213,1.34,1.272,0,4.691-2.489,8.521-2.633C60.171,51.2,68.4,62.49,68.4,79.657c0,9.681-9.6,21.718-16.243,24.084C46.263,105.841,43.645,96.758,34.886,96.758Z" transform="translate(888.951 352.032)" fill="#8d0606"/>
    <path id="Path_299" data-name="Path 299" d="M954.192,414.468s9.332-27.345,12.852-52.913a302.343,302.343,0,0,0,2.3-49.855s.542-.949,3.117,0,5.422,2.236,5.422,2.236,16.784,6.293,28,32.715,13.946,69.73,13.946,69.73l-4.785-1.914s.718-39.924-9.981-64.945c-8.238-19.266-29.123-33.635-29.123-33.635s-1.034-.606-1.616-.367-.709,1.324-.709,1.324a388.151,388.151,0,0,1-4.1,44.709c-3.726,25.021-12.169,52.913-12.169,52.913Z" transform="translate(-91.972)" fill="url(#linear-gradient)"/>
    <path id="Path_295" data-name="Path 295" d="M34.049,43.931c9.939,0,11.881-8.409,18.048-5.332,5.181,2.584,14.68,13.969,14.68,22.469A33.388,33.388,0,0,1,0,61.068c0-9.681,8.674-21.607,15.317-23.973C21.212,35,25.29,43.931,34.049,43.931Z" transform="translate(832 366.435)" fill="url(#linear-gradient-2)"/>
    <path id="Path_298" data-name="Path 298" d="M32.727,43.931c-9.939,0-11.881-8.409-18.048-5.332C9.5,41.183,0,52.567,0,61.068a33.388,33.388,0,1,0,66.776,0c0-9.681-8.674-21.607-15.317-23.973C45.564,35,41.486,43.931,32.727,43.931Z" transform="translate(891.109 366.93)" fill="url(#linear-gradient-3)"/>
  </g>
</svg>
