<svg id="Component_1_1" data-name="Component 1 – 1" xmlns="http://www.w3.org/2000/svg" xmlns:xlink="http://www.w3.org/1999/xlink" width="204.917" height="178.204" viewBox="0 0 204.917 178.204">
  <defs>
    <linearGradient id="linear-gradient" x1="0.863" y1="0.017" x2="0.232" y2="1.074" gradientUnits="objectBoundingBox">
      <stop offset="0" stop-color="#657820"/>
      <stop offset="1" stop-color="#394411"/>
    </linearGradient>
    <linearGradient id="linear-gradient-2" x1="0.137" y1="0.017" x2="0.768" y2="1.074" xlink:href="#linear-gradient"/>
    <linearGradient id="linear-gradient-3" x1="0.863" y1="0.983" x2="0.232" y2="-0.074" xlink:href="#linear-gradient"/>
    <linearGradient id="linear-gradient-4" x1="0.254" y1="0.945" x2="0.64" gradientUnits="objectBoundingBox">
      <stop offset="0" stop-color="#dcd666"/>
      <stop offset="0.653" stop-color="#c9c42d"/>
      <stop offset="1" stop-color="#c8c32a"/>
    </linearGradient>
    <linearGradient id="linear-gradient-6" x1="0.746" y1="0.055" x2="0.36" y2="1" xlink:href="#linear-gradient-4"/>
  </defs>
  <path id="Path_292" data-name="Path 292" d="M1204.866,517.521s-20.58,12.408-21.388,38.288-14.779,54.5-14.779,54.5h-42.027s14.3-38.128,25.616-64.009S1204.866,517.521,1204.866,517.521Z" transform="translate(-1086.475 -517.521)" fill="url(#linear-gradient)"/>
  <path id="Path_293" data-name="Path 293" d="M1126.672,517.521s20.58,12.408,21.388,38.288,14.779,54.5,14.779,54.5h42.027s-14.3-38.128-25.615-64.009S1126.672,517.521,1126.672,517.521Z" transform="translate(-1118.589 -515.594)" fill="url(#linear-gradient-2)"/>
  <path id="Path_294" data-name="Path 294" d="M55.868,66.293s-14.7-8.865-15.282-27.356S30.028,0,30.028,0H0S10.218,27.242,18.3,45.733,55.868,66.293,55.868,66.293Z" transform="translate(86.649 61.95) rotate(132)" fill="url(#linear-gradient-3)"/>
  <path id="Path_271" data-name="Path 271" d="M22.367.983C9.058.983,0,9.99,0,21.879S7.965,40.608,21.274,40.608,48.2,33.768,48.2,21.879c0-7.478-4.446-12.3-11.072-16.25C33.449,3.44,27.3.983,22.367.983Z" transform="translate(149.669 131.692)" fill="url(#linear-gradient-4)"/>
  <path id="Path_272" data-name="Path 272" d="M22.367.983C9.058.983,0,9.99,0,21.879S7.965,40.608,21.274,40.608,48.2,33.768,48.2,21.879c0-7.478-4.446-12.3-11.072-16.25C33.449,3.44,27.3.983,22.367.983Z" transform="translate(117.538 131.692)" fill="url(#linear-gradient-4)"/>
  <path id="Path_273" data-name="Path 273" d="M25.829,39.625c13.309,0,22.367-9.006,22.367-20.9S40.231,0,26.922,0,0,6.84,0,18.729c0,7.478,4.446,12.3,11.072,16.25C14.747,37.169,20.892,39.625,25.829,39.625Z" transform="translate(168.371 152.794) rotate(-167)" fill="url(#linear-gradient-6)"/>
  <path id="Path_274" data-name="Path 274" d="M25.829,39.625c13.309,0,22.367-9.006,22.367-20.9S40.231,0,26.922,0,0,6.84,0,18.729c0,7.478,4.446,12.3,11.072,16.25C14.747,37.169,20.892,39.625,25.829,39.625Z" transform="translate(196.003 143.798) rotate(-167)" fill="url(#linear-gradient-6)"/>
  <path id="Path_275" data-name="Path 275" d="M25.829,39.625c13.309,0,22.367-9.006,22.367-20.9S40.231,0,26.922,0,0,6.84,0,18.729c0,7.478,4.446,12.3,11.072,16.25C14.747,37.169,20.892,39.625,25.829,39.625Z" transform="matrix(-0.995, 0.105, -0.105, -0.995, 173.457, 113.766)" fill="url(#linear-gradient-6)"/>
  <path id="Path_276" data-name="Path 276" d="M25.829,39.625c13.309,0,22.367-9.006,22.367-20.9S40.231,0,26.922,0,0,6.84,0,18.729c0,7.478,4.446,12.3,11.072,16.25C14.747,37.169,20.892,39.625,25.829,39.625Z" transform="matrix(-0.995, 0.105, -0.105, -0.995, 199.804, 102.198)" fill="url(#linear-gradient-6)"/>
  <path id="Path_277" data-name="Path 277" d="M25.829,39.625c13.309,0,22.367-9.006,22.367-20.9S40.231,0,26.922,0,0,6.84,0,18.729c0,7.478,4.446,12.3,11.072,16.25C14.747,37.169,20.892,39.625,25.829,39.625Z" transform="matrix(-0.995, 0.105, -0.105, -0.995, 154.821, 96.415)" fill="url(#linear-gradient-6)"/>
  <path id="Path_278" data-name="Path 278" d="M25.829,39.625c13.309,0,22.367-9.006,22.367-20.9S40.231,0,26.922,0,0,6.84,0,18.729c0,7.478,4.446,12.3,11.072,16.25C14.747,37.169,20.892,39.625,25.829,39.625Z" transform="matrix(-0.995, 0.105, -0.105, -0.995, 169.601, 73.923)" fill="url(#linear-gradient-6)"/>
  <path id="Path_279" data-name="Path 279" d="M25.829,39.625c13.309,0,22.367-9.006,22.367-20.9S40.231,0,26.922,0,0,6.84,0,18.729c0,7.478,4.446,12.3,11.072,16.25C14.747,37.169,20.892,39.625,25.829,39.625Z" transform="matrix(-0.848, -0.53, 0.53, -0.848, 127.797, 148.644)" fill="url(#linear-gradient-6)"/>
  <path id="Path_280" data-name="Path 280" d="M25.829,39.625c13.309,0,22.367-9.006,22.367-20.9S40.231,0,26.922,0,0,6.84,0,18.729c0,7.478,4.446,12.3,11.072,16.25C14.747,37.169,20.892,39.625,25.829,39.625Z" transform="matrix(-0.848, -0.53, 0.53, -0.848, 122.013, 178.204)" fill="url(#linear-gradient-6)"/>
  <path id="Path_281" data-name="Path 281" d="M25.829,39.625c13.309,0,22.367-9.006,22.367-20.9S40.231,0,26.922,0,0,6.84,0,18.729c0,7.478,4.446,12.3,11.072,16.25C14.747,37.169,20.892,39.625,25.829,39.625Z" transform="matrix(-0.966, -0.259, 0.259, -0.966, 108.376, 144.446)" fill="url(#linear-gradient-6)"/>
  <path id="Path_282" data-name="Path 282" d="M25.829,39.625c13.309,0,22.367-9.006,22.367-20.9S40.231,0,26.922,0,0,6.84,0,18.729c0,7.478,4.446,12.3,11.072,16.25C14.747,37.169,20.892,39.625,25.829,39.625Z" transform="matrix(-0.966, -0.259, 0.259, -0.966, 110.946, 110.388)" fill="url(#linear-gradient-6)"/>
  <path id="Path_283" data-name="Path 283" d="M25.829,39.625c13.309,0,22.367-9.006,22.367-20.9S40.231,0,26.922,0,0,6.84,0,18.729c0,7.478,4.446,12.3,11.072,16.25C14.747,37.169,20.892,39.625,25.829,39.625Z" transform="matrix(-0.966, -0.259, 0.259, -0.966, 152.716, 129.024)" fill="url(#linear-gradient-6)"/>
  <path id="Path_284" data-name="Path 284" d="M25.829,39.625c13.309,0,22.367-9.006,22.367-20.9S40.231,0,26.922,0,0,6.84,0,18.729c0,7.478,4.446,12.3,11.072,16.25C14.747,37.169,20.892,39.625,25.829,39.625Z" transform="matrix(-0.966, -0.259, 0.259, -0.966, 114.802, 78.257)" fill="url(#linear-gradient-6)"/>
  <path id="Path_285" data-name="Path 285" d="M25.829,39.625c13.309,0,22.367-9.006,22.367-20.9S40.231,0,26.922,0,0,6.84,0,18.729c0,7.478,4.446,12.3,11.072,16.25C14.747,37.169,20.892,39.625,25.829,39.625Z" transform="translate(85.64 115.592) rotate(171)" fill="url(#linear-gradient-6)"/>
  <path id="Path_286" data-name="Path 286" d="M25.829,39.625c13.309,0,22.367-9.006,22.367-20.9S40.231,0,26.922,0,0,6.84,0,18.729c0,7.478,4.446,12.3,11.072,16.25C14.747,37.169,20.892,39.625,25.829,39.625Z" transform="translate(102.091 177.66) rotate(-173)" fill="url(#linear-gradient-6)"/>
  <path id="Path_287" data-name="Path 287" d="M25.829,39.625c13.309,0,22.367-9.006,22.367-20.9S40.231,0,26.922,0,0,6.84,0,18.729c0,7.478,4.446,12.3,11.072,16.25C14.747,37.169,20.892,39.625,25.829,39.625Z" transform="translate(82.17 152.598) rotate(-173)" fill="url(#linear-gradient-6)"/>
  <path id="Path_288" data-name="Path 288" d="M25.829,39.625c13.309,0,22.367-9.006,22.367-20.9S40.231,0,26.922,0,0,6.84,0,18.729c0,7.478,4.446,12.3,11.072,16.25C14.747,37.169,20.892,39.625,25.829,39.625Z" transform="translate(87.332 78.55) rotate(161)" fill="url(#linear-gradient-6)"/>
  <path id="Path_291" data-name="Path 291" d="M25.829,39.625c13.309,0,22.367-9.006,22.367-20.9S40.231,0,26.922,0,0,6.84,0,18.729c0,7.478,4.446,12.3,11.072,16.25C14.747,37.169,20.892,39.625,25.829,39.625Z" transform="matrix(-1, 0.017, -0.017, -1, 64.543, 151.956)" fill="url(#linear-gradient-6)"/>
  <path id="Path_289" data-name="Path 289" d="M25.829,39.625c13.309,0,22.367-9.006,22.367-20.9S40.231,0,26.922,0,0,6.84,0,18.729c0,7.478,4.446,12.3,11.072,16.25C14.747,37.169,20.892,39.625,25.829,39.625Z" transform="translate(60.984 118.393) rotate(161)" fill="url(#linear-gradient-6)"/>
  <path id="Path_290" data-name="Path 290" d="M25.829,39.625c13.309,0,22.367-9.006,22.367-20.9S40.231,0,26.922,0,0,6.84,0,18.729c0,7.478,4.446,12.3,11.072,16.25C14.747,37.169,20.892,39.625,25.829,39.625Z" transform="matrix(-1, 0.017, -0.017, -1, 58.76, 102.475)" fill="url(#linear-gradient-6)"/>
</svg>
