<svg id="Component_8_1" data-name="Component 8 – 1" xmlns="http://www.w3.org/2000/svg" xmlns:xlink="http://www.w3.org/1999/xlink" width="217.353" height="208.869" viewBox="0 0 217.353 208.869">
  <defs>
    <radialGradient id="radial-gradient" cx="0.64" cy="0.397" r="0.704" gradientTransform="matrix(-0.786, 0.542, 0.474, 0.786, 0.955, -0.262)" gradientUnits="objectBoundingBox">
      <stop offset="0" stop-color="#fa8907"/>
      <stop offset="1" stop-color="#fd5c00"/>
    </radialGradient>
  </defs>
  <path id="Path_377" data-name="Path 377" d="M96.609-6.428C37.609-6.428,0,42.1,0,95.334s20.537,98.023,79.537,98.023c32.981,0,79.414.106,106.122-23.993s28-50.552,28-74.031C213.659,42.1,155.609-6.428,96.609-6.428Z" transform="translate(0 15.512)" fill="url(#radial-gradient)"/>
  <g id="Group_18" data-name="Group 18" transform="translate(28.321 50.173)" opacity="0.6">
    <ellipse id="Ellipse_7" data-name="Ellipse 7" cx="1.289" cy="0.43" rx="1.289" ry="0.43" transform="translate(101.438 21.491)" fill="rgba(253,99,1,0.8)"/>
    <ellipse id="Ellipse_98" data-name="Ellipse 98" cx="1.289" cy="0.43" rx="1.289" ry="0.43" transform="translate(105.736 82.525)" fill="rgba(253,99,1,0.8)"/>
    <ellipse id="Ellipse_106" data-name="Ellipse 106" cx="1.289" cy="0.43" rx="1.289" ry="0.43" transform="translate(119.49 66.192)" fill="rgba(253,99,1,0.8)"/>
    <ellipse id="Ellipse_114" data-name="Ellipse 114" cx="1.289" cy="0.43" rx="1.289" ry="0.43" transform="translate(111.753 87.683)" fill="rgba(253,99,1,0.8)"/>
    <ellipse id="Ellipse_122" data-name="Ellipse 122" cx="1.289" cy="0.43" rx="1.289" ry="0.43" transform="translate(62.754 35.245)" fill="rgba(253,99,1,0.8)"/>
    <ellipse id="Ellipse_14" data-name="Ellipse 14" cx="1.289" cy="0.43" rx="1.289" ry="0.43" transform="translate(97.999 32.666)" fill="rgba(253,99,1,0.8)"/>
    <ellipse id="Ellipse_97" data-name="Ellipse 97" cx="1.289" cy="0.43" rx="1.289" ry="0.43" transform="translate(102.297 93.701)" fill="rgba(253,99,1,0.8)"/>
    <ellipse id="Ellipse_105" data-name="Ellipse 105" cx="1.289" cy="0.43" rx="1.289" ry="0.43" transform="translate(116.051 77.368)" fill="rgba(253,99,1,0.8)"/>
    <ellipse id="Ellipse_113" data-name="Ellipse 113" cx="1.289" cy="0.43" rx="1.289" ry="0.43" transform="translate(108.315 98.859)" fill="rgba(253,99,1,0.8)"/>
    <ellipse id="Ellipse_121" data-name="Ellipse 121" cx="1.289" cy="0.43" rx="1.289" ry="0.43" transform="translate(59.315 46.421)" fill="rgba(253,99,1,0.8)"/>
    <ellipse id="Ellipse_18" data-name="Ellipse 18" cx="1.289" cy="0.43" rx="1.289" ry="0.43" transform="translate(132.385 46.421)" fill="rgba(253,99,1,0.8)"/>
    <ellipse id="Ellipse_96" data-name="Ellipse 96" cx="1.289" cy="0.43" rx="1.289" ry="0.43" transform="translate(136.683 107.455)" fill="rgba(253,99,1,0.8)"/>
    <ellipse id="Ellipse_104" data-name="Ellipse 104" cx="1.289" cy="0.43" rx="1.289" ry="0.43" transform="translate(150.437 91.122)" fill="rgba(253,99,1,0.8)"/>
    <ellipse id="Ellipse_112" data-name="Ellipse 112" cx="1.289" cy="0.43" rx="1.289" ry="0.43" transform="translate(142.7 112.613)" fill="rgba(253,99,1,0.8)"/>
    <ellipse id="Ellipse_120" data-name="Ellipse 120" cx="1.289" cy="0.43" rx="1.289" ry="0.43" transform="translate(93.701 60.175)" fill="rgba(253,99,1,0.8)"/>
    <ellipse id="Ellipse_22" data-name="Ellipse 22" cx="1.289" cy="0.43" rx="1.289" ry="0.43" transform="translate(72.21)" fill="rgba(253,99,1,0.8)"/>
    <ellipse id="Ellipse_95" data-name="Ellipse 95" cx="1.289" cy="0.43" rx="1.289" ry="0.43" transform="translate(76.508 61.034)" fill="rgba(253,99,1,0.8)"/>
    <ellipse id="Ellipse_103" data-name="Ellipse 103" cx="1.289" cy="0.43" rx="1.289" ry="0.43" transform="translate(90.262 44.701)" fill="rgba(253,99,1,0.8)"/>
    <ellipse id="Ellipse_111" data-name="Ellipse 111" cx="1.289" cy="0.43" rx="1.289" ry="0.43" transform="translate(82.525 66.192)" fill="rgba(253,99,1,0.8)"/>
    <ellipse id="Ellipse_119" data-name="Ellipse 119" cx="1.289" cy="0.43" rx="1.289" ry="0.43" transform="translate(33.526 13.754)" fill="rgba(253,99,1,0.8)"/>
    <ellipse id="Ellipse_26" data-name="Ellipse 26" cx="1.289" cy="0.43" rx="1.289" ry="0.43" transform="translate(38.684 52.438)" fill="rgba(253,99,1,0.8)"/>
    <ellipse id="Ellipse_94" data-name="Ellipse 94" cx="1.289" cy="0.43" rx="1.289" ry="0.43" transform="translate(42.982 113.472)" fill="rgba(253,99,1,0.8)"/>
    <ellipse id="Ellipse_102" data-name="Ellipse 102" cx="1.289" cy="0.43" rx="1.289" ry="0.43" transform="translate(56.736 97.139)" fill="rgba(253,99,1,0.8)"/>
    <ellipse id="Ellipse_110" data-name="Ellipse 110" cx="1.289" cy="0.43" rx="1.289" ry="0.43" transform="translate(48.999 118.63)" fill="rgba(253,99,1,0.8)"/>
    <ellipse id="Ellipse_118" data-name="Ellipse 118" cx="1.289" cy="0.43" rx="1.289" ry="0.43" transform="translate(0 66.192)" fill="rgba(253,99,1,0.8)"/>
    <ellipse id="Ellipse_30" data-name="Ellipse 30" cx="1.289" cy="0.43" rx="1.289" ry="0.43" transform="translate(90.262 61.034)" fill="rgba(253,99,1,0.8)"/>
    <ellipse id="Ellipse_93" data-name="Ellipse 93" cx="1.289" cy="0.43" rx="1.289" ry="0.43" transform="translate(94.56 122.069)" fill="rgba(253,99,1,0.8)"/>
    <ellipse id="Ellipse_101" data-name="Ellipse 101" cx="1.289" cy="0.43" rx="1.289" ry="0.43" transform="translate(108.315 105.736)" fill="rgba(253,99,1,0.8)"/>
    <ellipse id="Ellipse_109" data-name="Ellipse 109" cx="1.289" cy="0.43" rx="1.289" ry="0.43" transform="translate(100.578 127.227)" fill="rgba(253,99,1,0.8)"/>
    <ellipse id="Ellipse_117" data-name="Ellipse 117" cx="1.289" cy="0.43" rx="1.289" ry="0.43" transform="translate(51.578 74.789)" fill="rgba(253,99,1,0.8)"/>
    <ellipse id="Ellipse_34" data-name="Ellipse 34" cx="1.289" cy="0.43" rx="1.289" ry="0.43" transform="translate(117.771 21.491)" fill="rgba(253,99,1,0.8)"/>
    <ellipse id="Ellipse_92" data-name="Ellipse 92" cx="1.289" cy="0.43" rx="1.289" ry="0.43" transform="translate(122.069 82.525)" fill="rgba(253,99,1,0.8)"/>
    <ellipse id="Ellipse_100" data-name="Ellipse 100" cx="1.289" cy="0.43" rx="1.289" ry="0.43" transform="translate(135.823 66.192)" fill="rgba(253,99,1,0.8)"/>
    <ellipse id="Ellipse_108" data-name="Ellipse 108" cx="1.289" cy="0.43" rx="1.289" ry="0.43" transform="translate(128.086 87.683)" fill="rgba(253,99,1,0.8)"/>
    <ellipse id="Ellipse_116" data-name="Ellipse 116" cx="1.289" cy="0.43" rx="1.289" ry="0.43" transform="translate(79.087 35.245)" fill="rgba(253,99,1,0.8)"/>
    <ellipse id="Ellipse_38" data-name="Ellipse 38" cx="1.289" cy="0.43" rx="1.289" ry="0.43" transform="translate(114.332 33.526)" fill="rgba(253,99,1,0.8)"/>
    <ellipse id="Ellipse_91" data-name="Ellipse 91" cx="1.289" cy="0.43" rx="1.289" ry="0.43" transform="translate(118.63 94.56)" fill="rgba(253,99,1,0.8)"/>
    <ellipse id="Ellipse_99" data-name="Ellipse 99" cx="1.289" cy="0.43" rx="1.289" ry="0.43" transform="translate(132.385 78.227)" fill="rgba(253,99,1,0.8)"/>
    <ellipse id="Ellipse_107" data-name="Ellipse 107" cx="1.289" cy="0.43" rx="1.289" ry="0.43" transform="translate(124.648 99.718)" fill="rgba(253,99,1,0.8)"/>
    <ellipse id="Ellipse_115" data-name="Ellipse 115" cx="1.289" cy="0.43" rx="1.289" ry="0.43" transform="translate(75.648 47.28)" fill="rgba(253,99,1,0.8)"/>
    <ellipse id="Ellipse_42" data-name="Ellipse 42" cx="1.289" cy="0.43" rx="1.289" ry="0.43" transform="translate(107.455 42.982)" fill="rgba(253,99,1,0.8)"/>
    <ellipse id="Ellipse_46" data-name="Ellipse 46" cx="1.289" cy="0.43" rx="1.289" ry="0.43" transform="translate(122.069 50.719)" fill="rgba(253,99,1,0.8)"/>
    <ellipse id="Ellipse_50" data-name="Ellipse 50" cx="1.289" cy="0.43" rx="1.289" ry="0.43" transform="translate(52.438 63.613)" fill="rgba(253,99,1,0.8)"/>
    <ellipse id="Ellipse_54" data-name="Ellipse 54" cx="1.289" cy="0.43" rx="1.289" ry="0.43" transform="translate(57.596 33.526)" fill="rgba(253,99,1,0.8)"/>
    <ellipse id="Ellipse_58" data-name="Ellipse 58" cx="1.289" cy="0.43" rx="1.289" ry="0.43" transform="translate(76.508 36.964)" fill="rgba(253,99,1,0.8)"/>
    <ellipse id="Ellipse_62" data-name="Ellipse 62" cx="1.289" cy="0.43" rx="1.289" ry="0.43" transform="translate(48.14 49.859)" fill="rgba(253,99,1,0.8)"/>
    <ellipse id="Ellipse_66" data-name="Ellipse 66" cx="1.289" cy="0.43" rx="1.289" ry="0.43" transform="translate(74.789 58.456)" fill="rgba(253,99,1,0.8)"/>
    <ellipse id="Ellipse_70" data-name="Ellipse 70" cx="1.289" cy="0.43" rx="1.289" ry="0.43" transform="translate(85.964 0.86)" fill="rgba(253,99,1,0.8)"/>
    <ellipse id="Ellipse_74" data-name="Ellipse 74" cx="1.289" cy="0.43" rx="1.289" ry="0.43" transform="translate(110.034 1.719)" fill="rgba(253,99,1,0.8)"/>
    <ellipse id="Ellipse_78" data-name="Ellipse 78" cx="1.289" cy="0.43" rx="1.289" ry="0.43" transform="translate(28.368 0.86)" fill="rgba(253,99,1,0.8)"/>
    <ellipse id="Ellipse_82" data-name="Ellipse 82" cx="1.289" cy="0.43" rx="1.289" ry="0.43" transform="translate(53.298 90.262)" fill="rgba(253,99,1,0.8)"/>
    <ellipse id="Ellipse_86" data-name="Ellipse 86" cx="1.289" cy="0.43" rx="1.289" ry="0.43" transform="translate(90.262 80.806)" fill="rgba(253,99,1,0.8)"/>
    <ellipse id="Ellipse_90" data-name="Ellipse 90" cx="1.289" cy="0.43" rx="1.289" ry="0.43" transform="translate(67.052 95.42)" fill="rgba(253,99,1,0.8)"/>
    <ellipse id="Ellipse_10" data-name="Ellipse 10" cx="1.289" cy="0.43" rx="1.289" ry="0.43" transform="translate(88.543 27.887)" fill="rgba(253,99,1,0.8)"/>
    <ellipse id="Ellipse_13" data-name="Ellipse 13" cx="1.289" cy="0.43" rx="1.289" ry="0.43" transform="translate(85.104 39.062)" fill="rgba(253,99,1,0.8)"/>
    <ellipse id="Ellipse_17" data-name="Ellipse 17" cx="1.289" cy="0.43" rx="1.289" ry="0.43" transform="translate(119.49 52.817)" fill="rgba(253,99,1,0.8)"/>
    <ellipse id="Ellipse_21" data-name="Ellipse 21" cx="1.289" cy="0.43" rx="1.289" ry="0.43" transform="translate(59.315 6.396)" fill="rgba(253,99,1,0.8)"/>
    <ellipse id="Ellipse_25" data-name="Ellipse 25" cx="1.289" cy="0.43" rx="1.289" ry="0.43" transform="translate(25.789 58.834)" fill="rgba(253,99,1,0.8)"/>
    <ellipse id="Ellipse_29" data-name="Ellipse 29" cx="1.289" cy="0.43" rx="1.289" ry="0.43" transform="translate(77.368 67.43)" fill="rgba(253,99,1,0.8)"/>
    <ellipse id="Ellipse_33" data-name="Ellipse 33" cx="1.289" cy="0.43" rx="1.289" ry="0.43" transform="translate(104.876 27.887)" fill="rgba(253,99,1,0.8)"/>
    <ellipse id="Ellipse_37" data-name="Ellipse 37" cx="1.289" cy="0.43" rx="1.289" ry="0.43" transform="translate(101.438 39.922)" fill="rgba(253,99,1,0.8)"/>
    <ellipse id="Ellipse_41" data-name="Ellipse 41" cx="1.289" cy="0.43" rx="1.289" ry="0.43" transform="translate(94.56 49.378)" fill="rgba(253,99,1,0.8)"/>
    <ellipse id="Ellipse_45" data-name="Ellipse 45" cx="1.289" cy="0.43" rx="1.289" ry="0.43" transform="translate(109.174 57.115)" fill="rgba(253,99,1,0.8)"/>
    <ellipse id="Ellipse_49" data-name="Ellipse 49" cx="1.289" cy="0.43" rx="1.289" ry="0.43" transform="translate(39.543 70.009)" fill="rgba(253,99,1,0.8)"/>
    <ellipse id="Ellipse_53" data-name="Ellipse 53" cx="1.289" cy="0.43" rx="1.289" ry="0.43" transform="translate(44.701 39.922)" fill="rgba(253,99,1,0.8)"/>
    <ellipse id="Ellipse_57" data-name="Ellipse 57" cx="1.289" cy="0.43" rx="1.289" ry="0.43" transform="translate(63.613 43.361)" fill="rgba(253,99,1,0.8)"/>
    <ellipse id="Ellipse_61" data-name="Ellipse 61" cx="1.289" cy="0.43" rx="1.289" ry="0.43" transform="translate(35.245 56.255)" fill="rgba(253,99,1,0.8)"/>
    <ellipse id="Ellipse_65" data-name="Ellipse 65" cx="1.289" cy="0.43" rx="1.289" ry="0.43" transform="translate(61.894 64.852)" fill="rgba(253,99,1,0.8)"/>
    <ellipse id="Ellipse_69" data-name="Ellipse 69" cx="1.289" cy="0.43" rx="1.289" ry="0.43" transform="translate(73.069 7.256)" fill="rgba(253,99,1,0.8)"/>
    <ellipse id="Ellipse_73" data-name="Ellipse 73" cx="1.289" cy="0.43" rx="1.289" ry="0.43" transform="translate(97.139 8.115)" fill="rgba(253,99,1,0.8)"/>
    <ellipse id="Ellipse_77" data-name="Ellipse 77" cx="1.289" cy="0.43" rx="1.289" ry="0.43" transform="translate(15.474 7.256)" fill="rgba(253,99,1,0.8)"/>
    <ellipse id="Ellipse_81" data-name="Ellipse 81" cx="1.289" cy="0.43" rx="1.289" ry="0.43" transform="translate(40.403 96.658)" fill="rgba(253,99,1,0.8)"/>
    <ellipse id="Ellipse_85" data-name="Ellipse 85" cx="1.289" cy="0.43" rx="1.289" ry="0.43" transform="translate(77.368 87.202)" fill="rgba(253,99,1,0.8)"/>
    <ellipse id="Ellipse_89" data-name="Ellipse 89" cx="1.289" cy="0.43" rx="1.289" ry="0.43" transform="translate(54.157 101.816)" fill="rgba(253,99,1,0.8)"/>
    <ellipse id="Ellipse_8" data-name="Ellipse 8" cx="1.289" cy="0.43" rx="1.289" ry="0.43" transform="translate(101.438 30.087)" fill="rgba(253,99,1,0.8)"/>
    <ellipse id="Ellipse_12" data-name="Ellipse 12" cx="1.289" cy="0.43" rx="1.289" ry="0.43" transform="translate(97.999 41.263)" fill="rgba(253,99,1,0.8)"/>
    <ellipse id="Ellipse_16" data-name="Ellipse 16" cx="1.289" cy="0.43" rx="1.289" ry="0.43" transform="translate(132.385 55.017)" fill="rgba(253,99,1,0.8)"/>
    <ellipse id="Ellipse_20" data-name="Ellipse 20" cx="1.289" cy="0.43" rx="1.289" ry="0.43" transform="translate(72.21 8.596)" fill="rgba(253,99,1,0.8)"/>
    <ellipse id="Ellipse_24" data-name="Ellipse 24" cx="1.289" cy="0.43" rx="1.289" ry="0.43" transform="translate(38.684 61.034)" fill="rgba(253,99,1,0.8)"/>
    <ellipse id="Ellipse_28" data-name="Ellipse 28" cx="1.289" cy="0.43" rx="1.289" ry="0.43" transform="translate(90.262 69.631)" fill="rgba(253,99,1,0.8)"/>
    <ellipse id="Ellipse_32" data-name="Ellipse 32" cx="1.289" cy="0.43" rx="1.289" ry="0.43" transform="translate(117.771 30.087)" fill="rgba(253,99,1,0.8)"/>
    <ellipse id="Ellipse_36" data-name="Ellipse 36" cx="1.289" cy="0.43" rx="1.289" ry="0.43" transform="translate(114.332 42.122)" fill="rgba(253,99,1,0.8)"/>
    <ellipse id="Ellipse_40" data-name="Ellipse 40" cx="1.289" cy="0.43" rx="1.289" ry="0.43" transform="translate(107.455 51.578)" fill="rgba(253,99,1,0.8)"/>
    <ellipse id="Ellipse_44" data-name="Ellipse 44" cx="1.289" cy="0.43" rx="1.289" ry="0.43" transform="translate(122.069 59.315)" fill="rgba(253,99,1,0.8)"/>
    <ellipse id="Ellipse_48" data-name="Ellipse 48" cx="1.289" cy="0.43" rx="1.289" ry="0.43" transform="translate(52.438 72.21)" fill="rgba(253,99,1,0.8)"/>
    <ellipse id="Ellipse_52" data-name="Ellipse 52" cx="1.289" cy="0.43" rx="1.289" ry="0.43" transform="translate(57.596 42.122)" fill="rgba(253,99,1,0.8)"/>
    <ellipse id="Ellipse_56" data-name="Ellipse 56" cx="1.289" cy="0.43" rx="1.289" ry="0.43" transform="translate(76.508 45.561)" fill="rgba(253,99,1,0.8)"/>
    <ellipse id="Ellipse_60" data-name="Ellipse 60" cx="1.289" cy="0.43" rx="1.289" ry="0.43" transform="translate(48.14 58.456)" fill="rgba(253,99,1,0.8)"/>
    <ellipse id="Ellipse_64" data-name="Ellipse 64" cx="1.289" cy="0.43" rx="1.289" ry="0.43" transform="translate(74.789 67.052)" fill="rgba(253,99,1,0.8)"/>
    <ellipse id="Ellipse_68" data-name="Ellipse 68" cx="1.289" cy="0.43" rx="1.289" ry="0.43" transform="translate(85.964 9.456)" fill="rgba(253,99,1,0.8)"/>
    <ellipse id="Ellipse_72" data-name="Ellipse 72" cx="1.289" cy="0.43" rx="1.289" ry="0.43" transform="translate(110.034 10.316)" fill="rgba(253,99,1,0.8)"/>
    <ellipse id="Ellipse_76" data-name="Ellipse 76" cx="1.289" cy="0.43" rx="1.289" ry="0.43" transform="translate(28.368 9.456)" fill="rgba(253,99,1,0.8)"/>
    <ellipse id="Ellipse_80" data-name="Ellipse 80" cx="1.289" cy="0.43" rx="1.289" ry="0.43" transform="translate(53.298 98.859)" fill="rgba(253,99,1,0.8)"/>
    <ellipse id="Ellipse_84" data-name="Ellipse 84" cx="1.289" cy="0.43" rx="1.289" ry="0.43" transform="translate(90.262 89.403)" fill="rgba(253,99,1,0.8)"/>
    <ellipse id="Ellipse_88" data-name="Ellipse 88" cx="1.289" cy="0.43" rx="1.289" ry="0.43" transform="translate(67.052 104.016)" fill="rgba(253,99,1,0.8)"/>
    <ellipse id="Ellipse_9" data-name="Ellipse 9" cx="1.289" cy="0.43" rx="1.289" ry="0.43" transform="translate(88.543 42.603)" fill="rgba(253,99,1,0.8)"/>
    <ellipse id="Ellipse_11" data-name="Ellipse 11" cx="1.289" cy="0.43" rx="1.289" ry="0.43" transform="translate(85.104 53.779)" fill="rgba(253,99,1,0.8)"/>
    <ellipse id="Ellipse_15" data-name="Ellipse 15" cx="1.289" cy="0.43" rx="1.289" ry="0.43" transform="translate(119.49 67.533)" fill="rgba(253,99,1,0.8)"/>
    <ellipse id="Ellipse_19" data-name="Ellipse 19" cx="1.289" cy="0.43" rx="1.289" ry="0.43" transform="translate(59.315 21.112)" fill="rgba(253,99,1,0.8)"/>
    <ellipse id="Ellipse_23" data-name="Ellipse 23" cx="1.289" cy="0.43" rx="1.289" ry="0.43" transform="translate(25.789 73.55)" fill="rgba(253,99,1,0.8)"/>
    <ellipse id="Ellipse_27" data-name="Ellipse 27" cx="1.289" cy="0.43" rx="1.289" ry="0.43" transform="translate(77.368 82.147)" fill="rgba(253,99,1,0.8)"/>
    <ellipse id="Ellipse_31" data-name="Ellipse 31" cx="1.289" cy="0.43" rx="1.289" ry="0.43" transform="translate(104.876 42.603)" fill="rgba(253,99,1,0.8)"/>
    <ellipse id="Ellipse_35" data-name="Ellipse 35" cx="1.289" cy="0.43" rx="1.289" ry="0.43" transform="translate(101.438 54.638)" fill="rgba(253,99,1,0.8)"/>
    <ellipse id="Ellipse_39" data-name="Ellipse 39" cx="1.289" cy="0.43" rx="1.289" ry="0.43" transform="translate(94.56 64.094)" fill="rgba(253,99,1,0.8)"/>
    <ellipse id="Ellipse_43" data-name="Ellipse 43" cx="1.289" cy="0.43" rx="1.289" ry="0.43" transform="translate(109.174 71.831)" fill="rgba(253,99,1,0.8)"/>
    <ellipse id="Ellipse_47" data-name="Ellipse 47" cx="1.289" cy="0.43" rx="1.289" ry="0.43" transform="translate(39.543 84.726)" fill="rgba(253,99,1,0.8)"/>
    <ellipse id="Ellipse_51" data-name="Ellipse 51" cx="1.289" cy="0.43" rx="1.289" ry="0.43" transform="translate(44.701 54.638)" fill="rgba(253,99,1,0.8)"/>
    <ellipse id="Ellipse_55" data-name="Ellipse 55" cx="1.289" cy="0.43" rx="1.289" ry="0.43" transform="translate(63.613 58.077)" fill="rgba(253,99,1,0.8)"/>
    <ellipse id="Ellipse_59" data-name="Ellipse 59" cx="1.289" cy="0.43" rx="1.289" ry="0.43" transform="translate(35.245 70.971)" fill="rgba(253,99,1,0.8)"/>
    <ellipse id="Ellipse_63" data-name="Ellipse 63" cx="1.289" cy="0.43" rx="1.289" ry="0.43" transform="translate(61.894 79.568)" fill="rgba(253,99,1,0.8)"/>
    <ellipse id="Ellipse_67" data-name="Ellipse 67" cx="1.289" cy="0.43" rx="1.289" ry="0.43" transform="translate(73.069 21.972)" fill="rgba(253,99,1,0.8)"/>
    <ellipse id="Ellipse_71" data-name="Ellipse 71" cx="1.289" cy="0.43" rx="1.289" ry="0.43" transform="translate(97.139 22.832)" fill="rgba(253,99,1,0.8)"/>
    <ellipse id="Ellipse_75" data-name="Ellipse 75" cx="1.289" cy="0.43" rx="1.289" ry="0.43" transform="translate(15.474 21.972)" fill="rgba(253,99,1,0.8)"/>
    <ellipse id="Ellipse_79" data-name="Ellipse 79" cx="1.289" cy="0.43" rx="1.289" ry="0.43" transform="translate(40.403 111.375)" fill="rgba(253,99,1,0.8)"/>
    <ellipse id="Ellipse_83" data-name="Ellipse 83" cx="1.289" cy="0.43" rx="1.289" ry="0.43" transform="translate(77.368 101.919)" fill="rgba(253,99,1,0.8)"/>
    <ellipse id="Ellipse_87" data-name="Ellipse 87" cx="1.289" cy="0.43" rx="1.289" ry="0.43" transform="translate(54.157 116.532)" fill="rgba(253,99,1,0.8)"/>
  </g>
  <g id="Group_19" data-name="Group 19" transform="matrix(-0.719, 0.695, -0.695, -0.719, 217.353, 92.138)" opacity="0.56">
    <ellipse id="Ellipse_7-2" data-name="Ellipse 7" cx="1.289" cy="0.43" rx="1.289" ry="0.43" transform="translate(48.999 105.736)" fill="rgba(253,99,1,0.8)"/>
    <ellipse id="Ellipse_98-2" data-name="Ellipse 98" cx="1.289" cy="0.43" rx="1.289" ry="0.43" transform="translate(44.701 44.701)" fill="rgba(253,99,1,0.8)"/>
    <ellipse id="Ellipse_106-2" data-name="Ellipse 106" cx="1.289" cy="0.43" rx="1.289" ry="0.43" transform="translate(30.947 61.034)" fill="rgba(253,99,1,0.8)"/>
    <ellipse id="Ellipse_114-2" data-name="Ellipse 114" cx="1.289" cy="0.43" rx="1.289" ry="0.43" transform="translate(38.684 39.543)" fill="rgba(253,99,1,0.8)"/>
    <ellipse id="Ellipse_122-2" data-name="Ellipse 122" cx="1.289" cy="0.43" rx="1.289" ry="0.43" transform="translate(87.683 91.982)" fill="rgba(253,99,1,0.8)"/>
    <ellipse id="Ellipse_14-2" data-name="Ellipse 14" cx="1.289" cy="0.43" rx="1.289" ry="0.43" transform="translate(52.438 94.56)" fill="rgba(253,99,1,0.8)"/>
    <ellipse id="Ellipse_97-2" data-name="Ellipse 97" cx="1.289" cy="0.43" rx="1.289" ry="0.43" transform="translate(48.14 33.526)" fill="rgba(253,99,1,0.8)"/>
    <ellipse id="Ellipse_105-2" data-name="Ellipse 105" cx="1.289" cy="0.43" rx="1.289" ry="0.43" transform="translate(34.386 49.859)" fill="rgba(253,99,1,0.8)"/>
    <ellipse id="Ellipse_113-2" data-name="Ellipse 113" cx="1.289" cy="0.43" rx="1.289" ry="0.43" transform="translate(42.122 28.368)" fill="rgba(253,99,1,0.8)"/>
    <ellipse id="Ellipse_121-2" data-name="Ellipse 121" cx="1.289" cy="0.43" rx="1.289" ry="0.43" transform="translate(91.122 80.806)" fill="rgba(253,99,1,0.8)"/>
    <ellipse id="Ellipse_18-2" data-name="Ellipse 18" cx="1.289" cy="0.43" rx="1.289" ry="0.43" transform="translate(18.052 80.806)" fill="rgba(253,99,1,0.8)"/>
    <ellipse id="Ellipse_96-2" data-name="Ellipse 96" cx="1.289" cy="0.43" rx="1.289" ry="0.43" transform="translate(13.754 19.772)" fill="rgba(253,99,1,0.8)"/>
    <ellipse id="Ellipse_104-2" data-name="Ellipse 104" cx="1.289" cy="0.43" rx="1.289" ry="0.43" transform="translate(0 36.105)" fill="rgba(253,99,1,0.8)"/>
    <ellipse id="Ellipse_112-2" data-name="Ellipse 112" cx="1.289" cy="0.43" rx="1.289" ry="0.43" transform="translate(7.737 14.614)" fill="rgba(253,99,1,0.8)"/>
    <ellipse id="Ellipse_120-2" data-name="Ellipse 120" cx="1.289" cy="0.43" rx="1.289" ry="0.43" transform="translate(56.736 67.052)" fill="rgba(253,99,1,0.8)"/>
    <ellipse id="Ellipse_22-2" data-name="Ellipse 22" cx="1.289" cy="0.43" rx="1.289" ry="0.43" transform="translate(78.227 127.227)" fill="rgba(253,99,1,0.8)"/>
    <ellipse id="Ellipse_95-2" data-name="Ellipse 95" cx="1.289" cy="0.43" rx="1.289" ry="0.43" transform="translate(73.929 66.192)" fill="rgba(253,99,1,0.8)"/>
    <ellipse id="Ellipse_103-2" data-name="Ellipse 103" cx="1.289" cy="0.43" rx="1.289" ry="0.43" transform="translate(60.175 82.526)" fill="rgba(253,99,1,0.8)"/>
    <ellipse id="Ellipse_111-2" data-name="Ellipse 111" cx="1.289" cy="0.43" rx="1.289" ry="0.43" transform="translate(67.912 61.034)" fill="rgba(253,99,1,0.8)"/>
    <ellipse id="Ellipse_119-2" data-name="Ellipse 119" cx="1.289" cy="0.43" rx="1.289" ry="0.43" transform="translate(116.911 113.473)" fill="rgba(253,99,1,0.8)"/>
    <ellipse id="Ellipse_26-2" data-name="Ellipse 26" cx="1.289" cy="0.43" rx="1.289" ry="0.43" transform="translate(111.753 74.789)" fill="rgba(253,99,1,0.8)"/>
    <ellipse id="Ellipse_94-2" data-name="Ellipse 94" cx="1.289" cy="0.43" rx="1.289" ry="0.43" transform="translate(107.455 13.754)" fill="rgba(253,99,1,0.8)"/>
    <ellipse id="Ellipse_102-2" data-name="Ellipse 102" cx="1.289" cy="0.43" rx="1.289" ry="0.43" transform="translate(93.701 30.087)" fill="rgba(253,99,1,0.8)"/>
    <ellipse id="Ellipse_110-2" data-name="Ellipse 110" cx="1.289" cy="0.43" rx="1.289" ry="0.43" transform="translate(101.437 8.596)" fill="rgba(253,99,1,0.8)"/>
    <ellipse id="Ellipse_118-2" data-name="Ellipse 118" cx="1.289" cy="0.43" rx="1.289" ry="0.43" transform="translate(150.437 61.034)" fill="rgba(253,99,1,0.8)"/>
    <ellipse id="Ellipse_30-2" data-name="Ellipse 30" cx="1.289" cy="0.43" rx="1.289" ry="0.43" transform="translate(60.175 66.192)" fill="rgba(253,99,1,0.8)"/>
    <ellipse id="Ellipse_93-2" data-name="Ellipse 93" cx="1.289" cy="0.43" rx="1.289" ry="0.43" transform="translate(55.877 5.158)" fill="rgba(253,99,1,0.8)"/>
    <ellipse id="Ellipse_101-2" data-name="Ellipse 101" cx="1.289" cy="0.43" rx="1.289" ry="0.43" transform="translate(42.122 21.491)" fill="rgba(253,99,1,0.8)"/>
    <ellipse id="Ellipse_109-2" data-name="Ellipse 109" cx="1.289" cy="0.43" rx="1.289" ry="0.43" transform="translate(49.859 0)" fill="rgba(253,99,1,0.8)"/>
    <ellipse id="Ellipse_117-2" data-name="Ellipse 117" cx="1.289" cy="0.43" rx="1.289" ry="0.43" transform="translate(98.859 52.438)" fill="rgba(253,99,1,0.8)"/>
    <ellipse id="Ellipse_34-2" data-name="Ellipse 34" cx="1.289" cy="0.43" rx="1.289" ry="0.43" transform="translate(32.666 105.736)" fill="rgba(253,99,1,0.8)"/>
    <ellipse id="Ellipse_92-2" data-name="Ellipse 92" cx="1.289" cy="0.43" rx="1.289" ry="0.43" transform="translate(28.368 44.701)" fill="rgba(253,99,1,0.8)"/>
    <ellipse id="Ellipse_100-2" data-name="Ellipse 100" cx="1.289" cy="0.43" rx="1.289" ry="0.43" transform="translate(14.614 61.034)" fill="rgba(253,99,1,0.8)"/>
    <ellipse id="Ellipse_108-2" data-name="Ellipse 108" cx="1.289" cy="0.43" rx="1.289" ry="0.43" transform="translate(22.351 39.543)" fill="rgba(253,99,1,0.8)"/>
    <ellipse id="Ellipse_116-2" data-name="Ellipse 116" cx="1.289" cy="0.43" rx="1.289" ry="0.43" transform="translate(71.35 91.982)" fill="rgba(253,99,1,0.8)"/>
    <ellipse id="Ellipse_38-2" data-name="Ellipse 38" cx="1.289" cy="0.43" rx="1.289" ry="0.43" transform="translate(36.105 93.701)" fill="rgba(253,99,1,0.8)"/>
    <ellipse id="Ellipse_91-2" data-name="Ellipse 91" cx="1.289" cy="0.43" rx="1.289" ry="0.43" transform="translate(31.807 32.666)" fill="rgba(253,99,1,0.8)"/>
    <ellipse id="Ellipse_99-2" data-name="Ellipse 99" cx="1.289" cy="0.43" rx="1.289" ry="0.43" transform="translate(18.052 48.999)" fill="rgba(253,99,1,0.8)"/>
    <ellipse id="Ellipse_107-2" data-name="Ellipse 107" cx="1.289" cy="0.43" rx="1.289" ry="0.43" transform="translate(25.789 27.509)" fill="rgba(253,99,1,0.8)"/>
    <ellipse id="Ellipse_115-2" data-name="Ellipse 115" cx="1.289" cy="0.43" rx="1.289" ry="0.43" transform="translate(74.789 79.947)" fill="rgba(253,99,1,0.8)"/>
    <ellipse id="Ellipse_42-2" data-name="Ellipse 42" cx="1.289" cy="0.43" rx="1.289" ry="0.43" transform="translate(42.982 84.245)" fill="rgba(253,99,1,0.8)"/>
    <ellipse id="Ellipse_46-2" data-name="Ellipse 46" cx="1.289" cy="0.43" rx="1.289" ry="0.43" transform="translate(28.368 76.508)" fill="rgba(253,99,1,0.8)"/>
    <ellipse id="Ellipse_50-2" data-name="Ellipse 50" cx="1.289" cy="0.43" rx="1.289" ry="0.43" transform="translate(97.999 63.613)" fill="rgba(253,99,1,0.8)"/>
    <ellipse id="Ellipse_54-2" data-name="Ellipse 54" cx="1.289" cy="0.43" rx="1.289" ry="0.43" transform="translate(92.841 93.701)" fill="rgba(253,99,1,0.8)"/>
    <ellipse id="Ellipse_58-2" data-name="Ellipse 58" cx="1.289" cy="0.43" rx="1.289" ry="0.43" transform="translate(73.929 90.262)" fill="rgba(253,99,1,0.8)"/>
    <ellipse id="Ellipse_62-2" data-name="Ellipse 62" cx="1.289" cy="0.43" rx="1.289" ry="0.43" transform="translate(102.297 77.368)" fill="rgba(253,99,1,0.8)"/>
    <ellipse id="Ellipse_66-2" data-name="Ellipse 66" cx="1.289" cy="0.43" rx="1.289" ry="0.43" transform="translate(75.648 68.771)" fill="rgba(253,99,1,0.8)"/>
    <ellipse id="Ellipse_70-2" data-name="Ellipse 70" cx="1.289" cy="0.43" rx="1.289" ry="0.43" transform="translate(64.473 126.367)" fill="rgba(253,99,1,0.8)"/>
    <ellipse id="Ellipse_74-2" data-name="Ellipse 74" cx="1.289" cy="0.43" rx="1.289" ry="0.43" transform="translate(40.403 125.507)" fill="rgba(253,99,1,0.8)"/>
    <ellipse id="Ellipse_78-2" data-name="Ellipse 78" cx="1.289" cy="0.43" rx="1.289" ry="0.43" transform="translate(122.069 126.367)" fill="rgba(253,99,1,0.8)"/>
    <ellipse id="Ellipse_82-2" data-name="Ellipse 82" cx="1.289" cy="0.43" rx="1.289" ry="0.43" transform="translate(97.139 36.965)" fill="rgba(253,99,1,0.8)"/>
    <ellipse id="Ellipse_86-2" data-name="Ellipse 86" cx="1.289" cy="0.43" rx="1.289" ry="0.43" transform="translate(60.175 46.421)" fill="rgba(253,99,1,0.8)"/>
    <ellipse id="Ellipse_90-2" data-name="Ellipse 90" cx="1.289" cy="0.43" rx="1.289" ry="0.43" transform="translate(83.385 31.807)" fill="rgba(253,99,1,0.8)"/>
    <ellipse id="Ellipse_10-2" data-name="Ellipse 10" cx="1.289" cy="0.43" rx="1.289" ry="0.43" transform="translate(61.894 99.34)" fill="rgba(253,99,1,0.8)"/>
    <ellipse id="Ellipse_13-2" data-name="Ellipse 13" cx="1.289" cy="0.43" rx="1.289" ry="0.43" transform="translate(65.333 88.164)" fill="rgba(253,99,1,0.8)"/>
    <ellipse id="Ellipse_17-2" data-name="Ellipse 17" cx="1.289" cy="0.43" rx="1.289" ry="0.43" transform="translate(30.947 74.41)" fill="rgba(253,99,1,0.8)"/>
    <ellipse id="Ellipse_21-2" data-name="Ellipse 21" cx="1.289" cy="0.43" rx="1.289" ry="0.43" transform="translate(91.122 120.831)" fill="rgba(253,99,1,0.8)"/>
    <ellipse id="Ellipse_25-2" data-name="Ellipse 25" cx="1.289" cy="0.43" rx="1.289" ry="0.43" transform="translate(124.648 68.393)" fill="rgba(253,99,1,0.8)"/>
    <ellipse id="Ellipse_29-2" data-name="Ellipse 29" cx="1.289" cy="0.43" rx="1.289" ry="0.43" transform="translate(73.069 59.796)" fill="rgba(253,99,1,0.8)"/>
    <ellipse id="Ellipse_33-2" data-name="Ellipse 33" cx="1.289" cy="0.43" rx="1.289" ry="0.43" transform="translate(45.561 99.34)" fill="rgba(253,99,1,0.8)"/>
    <ellipse id="Ellipse_37-2" data-name="Ellipse 37" cx="1.289" cy="0.43" rx="1.289" ry="0.43" transform="translate(48.999 87.305)" fill="rgba(253,99,1,0.8)"/>
    <ellipse id="Ellipse_41-2" data-name="Ellipse 41" cx="1.289" cy="0.43" rx="1.289" ry="0.43" transform="translate(55.877 77.849)" fill="rgba(253,99,1,0.8)"/>
    <ellipse id="Ellipse_45-2" data-name="Ellipse 45" cx="1.289" cy="0.43" rx="1.289" ry="0.43" transform="translate(41.263 70.112)" fill="rgba(253,99,1,0.8)"/>
    <ellipse id="Ellipse_49-2" data-name="Ellipse 49" cx="1.289" cy="0.43" rx="1.289" ry="0.43" transform="translate(110.894 57.217)" fill="rgba(253,99,1,0.8)"/>
    <ellipse id="Ellipse_53-2" data-name="Ellipse 53" cx="1.289" cy="0.43" rx="1.289" ry="0.43" transform="translate(105.736 87.305)" fill="rgba(253,99,1,0.8)"/>
    <ellipse id="Ellipse_57-2" data-name="Ellipse 57" cx="1.289" cy="0.43" rx="1.289" ry="0.43" transform="translate(86.824 83.866)" fill="rgba(253,99,1,0.8)"/>
    <ellipse id="Ellipse_61-2" data-name="Ellipse 61" cx="1.289" cy="0.43" rx="1.289" ry="0.43" transform="translate(115.192 70.972)" fill="rgba(253,99,1,0.8)"/>
    <ellipse id="Ellipse_65-2" data-name="Ellipse 65" cx="1.289" cy="0.43" rx="1.289" ry="0.43" transform="translate(88.543 62.375)" fill="rgba(253,99,1,0.8)"/>
    <ellipse id="Ellipse_69-2" data-name="Ellipse 69" cx="1.289" cy="0.43" rx="1.289" ry="0.43" transform="translate(77.368 119.971)" fill="rgba(253,99,1,0.8)"/>
    <ellipse id="Ellipse_73-2" data-name="Ellipse 73" cx="1.289" cy="0.43" rx="1.289" ry="0.43" transform="translate(53.298 119.111)" fill="rgba(253,99,1,0.8)"/>
    <ellipse id="Ellipse_77-2" data-name="Ellipse 77" cx="1.289" cy="0.43" rx="1.289" ry="0.43" transform="translate(134.963 119.971)" fill="rgba(253,99,1,0.8)"/>
    <ellipse id="Ellipse_81-2" data-name="Ellipse 81" cx="1.289" cy="0.43" rx="1.289" ry="0.43" transform="translate(110.034 30.568)" fill="rgba(253,99,1,0.8)"/>
    <ellipse id="Ellipse_85-2" data-name="Ellipse 85" cx="1.289" cy="0.43" rx="1.289" ry="0.43" transform="translate(73.069 40.025)" fill="rgba(253,99,1,0.8)"/>
    <ellipse id="Ellipse_89-2" data-name="Ellipse 89" cx="1.289" cy="0.43" rx="1.289" ry="0.43" transform="translate(96.28 25.411)" fill="rgba(253,99,1,0.8)"/>
    <ellipse id="Ellipse_8-2" data-name="Ellipse 8" cx="1.289" cy="0.43" rx="1.289" ry="0.43" transform="translate(48.999 97.139)" fill="rgba(253,99,1,0.8)"/>
    <ellipse id="Ellipse_12-2" data-name="Ellipse 12" cx="1.289" cy="0.43" rx="1.289" ry="0.43" transform="translate(52.438 85.964)" fill="rgba(253,99,1,0.8)"/>
    <ellipse id="Ellipse_16-2" data-name="Ellipse 16" cx="1.289" cy="0.43" rx="1.289" ry="0.43" transform="translate(18.052 72.21)" fill="rgba(253,99,1,0.8)"/>
    <ellipse id="Ellipse_20-2" data-name="Ellipse 20" cx="1.289" cy="0.43" rx="1.289" ry="0.43" transform="translate(78.227 118.63)" fill="rgba(253,99,1,0.8)"/>
    <ellipse id="Ellipse_24-2" data-name="Ellipse 24" cx="1.289" cy="0.43" rx="1.289" ry="0.43" transform="translate(111.753 66.192)" fill="rgba(253,99,1,0.8)"/>
    <ellipse id="Ellipse_28-2" data-name="Ellipse 28" cx="1.289" cy="0.43" rx="1.289" ry="0.43" transform="translate(60.175 57.596)" fill="rgba(253,99,1,0.8)"/>
    <ellipse id="Ellipse_32-2" data-name="Ellipse 32" cx="1.289" cy="0.43" rx="1.289" ry="0.43" transform="translate(32.666 97.139)" fill="rgba(253,99,1,0.8)"/>
    <ellipse id="Ellipse_36-2" data-name="Ellipse 36" cx="1.289" cy="0.43" rx="1.289" ry="0.43" transform="translate(36.105 85.104)" fill="rgba(253,99,1,0.8)"/>
    <ellipse id="Ellipse_40-2" data-name="Ellipse 40" cx="1.289" cy="0.43" rx="1.289" ry="0.43" transform="translate(42.982 75.648)" fill="rgba(253,99,1,0.8)"/>
    <ellipse id="Ellipse_44-2" data-name="Ellipse 44" cx="1.289" cy="0.43" rx="1.289" ry="0.43" transform="translate(28.368 67.912)" fill="rgba(253,99,1,0.8)"/>
    <ellipse id="Ellipse_48-2" data-name="Ellipse 48" cx="1.289" cy="0.43" rx="1.289" ry="0.43" transform="translate(97.999 55.017)" fill="rgba(253,99,1,0.8)"/>
    <ellipse id="Ellipse_52-2" data-name="Ellipse 52" cx="1.289" cy="0.43" rx="1.289" ry="0.43" transform="translate(92.841 85.104)" fill="rgba(253,99,1,0.8)"/>
    <ellipse id="Ellipse_56-2" data-name="Ellipse 56" cx="1.289" cy="0.43" rx="1.289" ry="0.43" transform="translate(73.929 81.666)" fill="rgba(253,99,1,0.8)"/>
    <ellipse id="Ellipse_60-2" data-name="Ellipse 60" cx="1.289" cy="0.43" rx="1.289" ry="0.43" transform="translate(102.297 68.771)" fill="rgba(253,99,1,0.8)"/>
    <ellipse id="Ellipse_64-2" data-name="Ellipse 64" cx="1.289" cy="0.43" rx="1.289" ry="0.43" transform="translate(75.648 60.175)" fill="rgba(253,99,1,0.8)"/>
    <ellipse id="Ellipse_68-2" data-name="Ellipse 68" cx="1.289" cy="0.43" rx="1.289" ry="0.43" transform="translate(64.473 117.771)" fill="rgba(253,99,1,0.8)"/>
    <ellipse id="Ellipse_72-2" data-name="Ellipse 72" cx="1.289" cy="0.43" rx="1.289" ry="0.43" transform="translate(40.403 116.911)" fill="rgba(253,99,1,0.8)"/>
    <ellipse id="Ellipse_76-2" data-name="Ellipse 76" cx="1.289" cy="0.43" rx="1.289" ry="0.43" transform="translate(122.069 117.771)" fill="rgba(253,99,1,0.8)"/>
    <ellipse id="Ellipse_80-2" data-name="Ellipse 80" cx="1.289" cy="0.43" rx="1.289" ry="0.43" transform="translate(97.139 28.368)" fill="rgba(253,99,1,0.8)"/>
    <ellipse id="Ellipse_84-2" data-name="Ellipse 84" cx="1.289" cy="0.43" rx="1.289" ry="0.43" transform="translate(60.175 37.824)" fill="rgba(253,99,1,0.8)"/>
    <ellipse id="Ellipse_88-2" data-name="Ellipse 88" cx="1.289" cy="0.43" rx="1.289" ry="0.43" transform="translate(83.385 23.21)" fill="rgba(253,99,1,0.8)"/>
    <ellipse id="Ellipse_9-2" data-name="Ellipse 9" cx="1.289" cy="0.43" rx="1.289" ry="0.43" transform="translate(61.894 84.623)" fill="rgba(253,99,1,0.8)"/>
    <ellipse id="Ellipse_11-2" data-name="Ellipse 11" cx="1.289" cy="0.43" rx="1.289" ry="0.43" transform="translate(65.333 73.448)" fill="rgba(253,99,1,0.8)"/>
    <ellipse id="Ellipse_15-2" data-name="Ellipse 15" cx="1.289" cy="0.43" rx="1.289" ry="0.43" transform="translate(30.947 59.694)" fill="rgba(253,99,1,0.8)"/>
    <ellipse id="Ellipse_19-2" data-name="Ellipse 19" cx="1.289" cy="0.43" rx="1.289" ry="0.43" transform="translate(91.122 106.114)" fill="rgba(253,99,1,0.8)"/>
    <ellipse id="Ellipse_23-2" data-name="Ellipse 23" cx="1.289" cy="0.43" rx="1.289" ry="0.43" transform="translate(124.648 53.676)" fill="rgba(253,99,1,0.8)"/>
    <ellipse id="Ellipse_27-2" data-name="Ellipse 27" cx="1.289" cy="0.43" rx="1.289" ry="0.43" transform="translate(73.069 45.08)" fill="rgba(253,99,1,0.8)"/>
    <ellipse id="Ellipse_31-2" data-name="Ellipse 31" cx="1.289" cy="0.43" rx="1.289" ry="0.43" transform="translate(45.561 84.623)" fill="rgba(253,99,1,0.8)"/>
    <ellipse id="Ellipse_35-2" data-name="Ellipse 35" cx="1.289" cy="0.43" rx="1.289" ry="0.43" transform="translate(48.999 72.588)" fill="rgba(253,99,1,0.8)"/>
    <ellipse id="Ellipse_39-2" data-name="Ellipse 39" cx="1.289" cy="0.43" rx="1.289" ry="0.43" transform="translate(55.877 63.132)" fill="rgba(253,99,1,0.8)"/>
    <ellipse id="Ellipse_43-2" data-name="Ellipse 43" cx="1.289" cy="0.43" rx="1.289" ry="0.43" transform="translate(41.263 55.396)" fill="rgba(253,99,1,0.8)"/>
    <ellipse id="Ellipse_47-2" data-name="Ellipse 47" cx="1.289" cy="0.43" rx="1.289" ry="0.43" transform="translate(110.894 42.501)" fill="rgba(253,99,1,0.8)"/>
    <ellipse id="Ellipse_51-2" data-name="Ellipse 51" cx="1.289" cy="0.43" rx="1.289" ry="0.43" transform="translate(105.736 72.588)" fill="rgba(253,99,1,0.8)"/>
    <ellipse id="Ellipse_55-2" data-name="Ellipse 55" cx="1.289" cy="0.43" rx="1.289" ry="0.43" transform="translate(86.824 69.15)" fill="rgba(253,99,1,0.8)"/>
    <ellipse id="Ellipse_59-2" data-name="Ellipse 59" cx="1.289" cy="0.43" rx="1.289" ry="0.43" transform="translate(115.192 56.255)" fill="rgba(253,99,1,0.8)"/>
    <ellipse id="Ellipse_63-2" data-name="Ellipse 63" cx="1.289" cy="0.43" rx="1.289" ry="0.43" transform="translate(88.543 47.659)" fill="rgba(253,99,1,0.8)"/>
    <ellipse id="Ellipse_67-2" data-name="Ellipse 67" cx="1.289" cy="0.43" rx="1.289" ry="0.43" transform="translate(77.368 105.255)" fill="rgba(253,99,1,0.8)"/>
    <ellipse id="Ellipse_71-2" data-name="Ellipse 71" cx="1.289" cy="0.43" rx="1.289" ry="0.43" transform="translate(53.298 104.395)" fill="rgba(253,99,1,0.8)"/>
    <ellipse id="Ellipse_75-2" data-name="Ellipse 75" cx="1.289" cy="0.43" rx="1.289" ry="0.43" transform="translate(134.963 105.255)" fill="rgba(253,99,1,0.8)"/>
    <ellipse id="Ellipse_79-2" data-name="Ellipse 79" cx="1.289" cy="0.43" rx="1.289" ry="0.43" transform="translate(110.034 15.852)" fill="rgba(253,99,1,0.8)"/>
    <ellipse id="Ellipse_83-2" data-name="Ellipse 83" cx="1.289" cy="0.43" rx="1.289" ry="0.43" transform="translate(73.069 25.308)" fill="rgba(253,99,1,0.8)"/>
    <ellipse id="Ellipse_87-2" data-name="Ellipse 87" cx="1.289" cy="0.43" rx="1.289" ry="0.43" transform="translate(96.28 10.694)" fill="rgba(253,99,1,0.8)"/>
  </g>
</svg>
