<svg xmlns="http://www.w3.org/2000/svg" width="29.052" height="29.007" viewBox="0 0 29.052 29.007"><defs><style>.a{fill:#fff;}</style></defs><g transform="translate(-4.948 -4.966)"><path class="a" d="M37.209,60.016a12.57,12.57,0,0,1-15.987-.172h3.173V57.876H18v6.395h1.968V61.344a14.378,14.378,0,0,0,8.018,3.345,12.81,12.81,0,0,0,1.353.074A14.545,14.545,0,0,0,43.137,45.8l-1.869.59A12.532,12.532,0,0,1,37.209,60.016Z" transform="translate(-9.842 -30.79)"/><path class="a" d="M29.064,8.59A14.516,14.516,0,0,0,5.625,23.839l1.869-.59A12.552,12.552,0,0,1,27.835,10.14h-3.2v1.968h6.395V5.712H29.064Z"/></g></svg>